<svg xmlns="http://www.w3.org/2000/svg" viewBox="0 0 200 200">
  <!-- Outer ring with glow effect -->
  <filter id="glow">
    <feGaussianBlur stdDeviation="4" result="blur" />
    <feComposite in="SourceGraphic" in2="blur" operator="over" />
  </filter>
  
  <!-- Background glow -->
  <circle cx="100" cy="100" r="80" fill="rgba(124, 58, 237, 0.1)" />
  <circle cx="100" cy="100" r="65" fill="rgba(124, 58, 237, 0.15)" />
  
  <!-- Orbiting elements -->
  <g filter="url(#glow)">
    <!-- Main orbital rings -->
    <circle cx="100" cy="100" r="60" fill="none" stroke="rgba(124, 58, 237, 0.3)" stroke-width="2" />
    <circle cx="100" cy="100" r="45" fill="none" stroke="rgba(124, 58, 237, 0.5)" stroke-width="2" 
      transform="rotate(30 100 100)" />
    <circle cx="100" cy="100" r="30" fill="none" stroke="rgba(124, 58, 237, 0.7)" stroke-width="2" 
      transform="rotate(-15 100 100)" />
      
    <!-- Orbital dots -->
    <circle cx="160" cy="100" r="6" fill="#7C3AED" />
    <circle cx="130" cy="145" r="8" fill="#8B5CF6" />
    <circle cx="70" cy="145" r="6" fill="#7C3AED" />
    <circle cx="40" cy="100" r="8" fill="#8B5CF6" />
    <circle cx="70" cy="55" r="6" fill="#7C3AED" />
    <circle cx="130" cy="55" r="8" fill="#8B5CF6" />
  </g>
  
  <!-- Central element -->
  <circle cx="100" cy="100" r="20" fill="#7C3AED" />
  
  <!-- A-shaped cutout in white -->
  <path d="M100 80 L110 110 H90 Z" fill="white" />
  
  <!-- Connection lines -->
  <line x1="100" y1="100" x2="160" y2="100" stroke="rgba(124, 58, 237, 0.6)" stroke-width="1.5" />
  <line x1="100" y1="100" x2="130" y2="145" stroke="rgba(124, 58, 237, 0.6)" stroke-width="1.5" />
  <line x1="100" y1="100" x2="70" y2="145" stroke="rgba(124, 58, 237, 0.6)" stroke-width="1.5" />
  <line x1="100" y1="100" x2="40" y2="100" stroke="rgba(124, 58, 237, 0.6)" stroke-width="1.5" />
  <line x1="100" y1="100" x2="70" y2="55" stroke="rgba(124, 58, 237, 0.6)" stroke-width="1.5" />
  <line x1="100" y1="100" x2="130" y2="55" stroke="rgba(124, 58, 237, 0.6)" stroke-width="1.5" />
</svg>